HIERARCHY
ROOT pelvis
{
  OFFSET 0 0 0
  CHANNELS 6 Xposition Yposition Zposition Zrotation Xrotation Yrotation
  JOINT pelvis_right_femur
  {
    OFFSET -11.43119 -3.542788 0.2090856
    CHANNELS 3 Zrotation Xrotation Yrotation
    JOINT right_femur_tibia
    {
      OFFSET -1.028693 -40.73281 5
      CHANNELS 3 Zrotation Xrotation Yrotation
      JOINT right_tibia_foot
      {
        OFFSET -0.5013517 -42.05707 -5
        CHANNELS 3 Zrotation Xrotation Yrotation
        End Site
        {
          OFFSET 0 -5 10
        }
      }
    }
  }
  JOINT pelvis_left_femur
  {
    OFFSET 11.43119 -3.542788 0.2090856
    CHANNELS 3 Zrotation Xrotation Yrotation
    JOINT left_femur_tibia
    {
      OFFSET 1.028693 -40.73281 5
      CHANNELS 3 Zrotation Xrotation Yrotation
      JOINT left_tibia_foot
      {
        OFFSET 0.3200228 -42.98253 -5
        CHANNELS 3 Zrotation Xrotation Yrotation
        End Site
        {
          OFFSET 0 -5 10
        }
      }
    }
  }
  JOINT pelvis_spine1
  {
    OFFSET 0 8.64413 -3.209807
    CHANNELS 3 Zrotation Xrotation Yrotation
    JOINT spine1
    {
      OFFSET 0 29.53957 -1.762685
      CHANNELS 3 Zrotation Xrotation Yrotation
      JOINT spine2
      {
        OFFSET 0 16.36153 -0.1422377
        CHANNELS 3 Zrotation Xrotation Yrotation
        JOINT neck
        {
          OFFSET 0 11.60093 5
          CHANNELS 3 Zrotation Xrotation Yrotation
          End Site
          {
            OFFSET 0 20 0
          }
        }
      }
      JOINT right_manubrium
      {
        OFFSET -4.671311 15.89868 4
        CHANNELS 3 Zrotation Xrotation Yrotation
        JOINT right_clavicle
        {
          OFFSET -13.601 1.573642 -2.74176
          CHANNELS 3 Zrotation Xrotation Yrotation
          JOINT right_humerus
          {
            OFFSET -0.06331682 -27.72702 2.252146
            CHANNELS 3 Zrotation Xrotation Yrotation
            JOINT right_radius
            {
              OFFSET -0.5696302 -23.92083 0.4042105
              CHANNELS 3 Zrotation Xrotation Yrotation
              End Site
              {
                OFFSET 0 -15 0
              }
            }
          }
        }
      }
      JOINT left_manubrium
      {
        OFFSET 4.671311 15.89868 4
        CHANNELS 3 Zrotation Xrotation Yrotation
        JOINT left_clavicle
        {
          OFFSET 13.601 1.573642 -2.74176
          CHANNELS 3 Zrotation Xrotation Yrotation
          JOINT left_humerus
          {
            OFFSET 0.000209614 -29.01858 1.101395
            CHANNELS 3 Zrotation Xrotation Yrotation
            JOINT left_radius
            {
              OFFSET -0.2288314 -24.59216 1.790347
              CHANNELS 3 Zrotation Xrotation Yrotation
              End Site
              {
                OFFSET 0 -15 0
              }
            }
          }
        }
      }
    }
  }
}
MOTION
Frames: 7
Frame Time: 0.0416666666667
-0.0001856561 47.88466 0.2380038 -2.786796 -21.39396 -0.8954962 -53.71716 -58.6029 -41.62885 -180 80.93378 -180 10.7856 2.013029 3.14355 63.3537 -50.18831 51.90947 -180 72.26785 -180 -7.065977 -7.171907 -13.59787 0.453694 18.01036 5.424456 8.575386 15.21224 -7.479256 -17.62852 6.698584 21.00981 3.331566 -25.07496 13.01653 17.53429 -10.69649 29.0012 -63.21632 -32.0314 14.28418 0 -72.18993 0 8.332994 -14.84304 8.171724 -24.82348 -35.92237 -1.771489 53.5565 -23.13442 -24.14654 0 -69.71901 0 -7.044751 -15.70174 11.9165
-0.0333902 47.85929 0.2303015 -2.870496 -21.31929 -1.032234 -53.62823 -58.79548 -41.65337 -180 80.92066 -180 10.78989 2.024432 3.103126 63.64527 -50.16779 52.08228 -180 72.22455 -180 -7.078361 -7.169139 -13.59981 0.4665633 18.17406 5.2988 8.201302 15.37458 -7.180115 -17.82549 6.813881 23.58079 3.379125 -24.45678 16.27132 17.57324 -11.34856 27.37939 -64.10138 -31.14349 13.38426 0 -72.0228 0 9.00784 -14.20158 9.150505 -23.53706 -36.88284 -0.6261905 56.18894 -21.47449 -21.50499 0 -68.16909 0 -6.742259 -16.30291 12.13424
-0.1177463 47.84987 0.2107462 -2.957236 -21.20653 -1.188908 -53.52056 -59.0223 -41.72835 -180 80.91547 -180 10.80045 2.045933 3.069429 64.01268 -50.11976 52.28584 -180 72.223 -180 -7.084748 -7.166353 -13.58309 0.3312129 18.41656 5.125087 7.876682 15.49917 -6.933201 -17.74656 6.90321 25.50906 3.531472 -24.00795 18.783 17.53817 -11.74173 25.91263 -64.86535 -29.98027 12.68215 0 -71.20665 0 9.616228 -13.45279 10.08393 -22.13336 -38.17771 0.4349813 58.78825 -19.85047 -18.765 0 -65.6034 0 -6.503707 -16.77757 12.36251
-0.1727253 47.87315 0.1725867 -3.086826 -21.0542 -1.410543 -53.40186 -59.25439 -41.84085 -180 80.94878 -180 10.81036 2.074221 3.046781 64.36654 -50.07474 52.48235 -180 72.23493 -180 -7.097171 -7.180066 -13.5554 0.07318652 18.68645 4.983217 7.727586 15.58252 -6.844891 -17.45117 6.994209 26.87813 3.777829 -23.7418 20.6521 17.54761 -11.90971 24.7222 -65.42217 -28.76411 12.19965 0 -70.08939 0 10.14922 -12.68376 11.00573 -20.6971 -39.71727 1.233584 61.22956 -18.32063 -16.0772 0 -61.92 0 -6.385217 -17.07511 12.61143
-0.2149195 47.88179 0.1828436 -3.239846 -20.89967 -1.651566 -53.29421 -59.48038 -41.98779 -180 80.99523 -180 10.82009 2.109466 3.043043 64.74094 -50.02864 52.68231 -180 72.20983 -180 -7.116833 -7.225072 -13.52143 -0.2865936 18.9257 4.890891 7.802308 15.63878 -6.895542 -17.06545 7.034264 27.92796 4.062792 -23.65766 22.14328 17.73347 -11.92227 23.86279 -65.70837 -27.67465 11.88895 0 -69.03683 0 10.58803 -11.99984 11.93125 -19.36318 -41.35183 1.557936 63.42321 -16.90187 -13.60858 0 -57.00532 0 -6.441978 -17.12834 12.8755
-0.2112328 47.88185 0.2091044 -3.419921 -20.73098 -1.889345 -53.20504 -59.6766 -42.11333 -180 81.03458 -180 10.8268 2.143891 3.057069 65.13743 -49.9974 52.88621 -180 72.12604 -180 -7.143196 -7.302979 -13.4904 -0.7218548 19.1761 4.751222 8.090843 15.66359 -7.033305 -16.68752 7.007974 28.82256 4.355011 -23.69101 23.41748 18.14539 -11.87364 23.34665 -65.76612 -26.82765 11.66329 0 -68.33563 0 10.94462 -11.46232 12.87571 -18.22336 -42.93294 1.27958 65.27035 -15.64613 -11.49302 0 -51.10359 0 -6.707046 -16.94735 13.14123
-0.1767695 47.87545 0.2581175 -3.611248 -20.57165 -2.058763 -53.11198 -59.82133 -42.19654 -180 81.07455 -180 10.83822 2.166785 3.05929 65.51123 -50.00793 53.07872 -180 72.01381 -180 -7.17536 -7.411272 -13.47648 -1.197173 19.40252 4.626175 8.563313 15.68915 -7.263995 -16.35185 6.954719 29.57738 4.644705 -23.77225 24.47588 18.71739 -11.76874 23.05798 -65.64834 -26.1655 11.49342 0 -68.06587 0 11.24388 -11.08211 13.84357 -17.33901 -44.42527 0.4778479 66.72517 -14.606 -9.715586 0 -44.7962 0 -7.134464 -16.62343 13.37591
